<?xml version="1.0" encoding="UTF-8"?>
<svg id="Layer_2" data-name="Layer 2" xmlns="http://www.w3.org/2000/svg" viewBox="0 200 772.43 300">
  <defs>
    <style>
      .cls-1, .cls-2, .cls-3 {
        stroke-width: 0px;
      }

      .cls-2 {
        fill: #9a59ff;
      }

      .cls-1 {
        fill: #000;
      }
    </style>
  </defs>
  <g id="logotype">
    <g>
      <g>
        <g>
          <g>
            <path class="cls-1" d="M259.95,417.07c-2.33-2.11-3.49-5.58-3.49-10.41v-28.33h20.7v-10.48h-20.7v-21.48h-12.81v21.48h-17.85v10.48h17.85v29.89c0,8.02,2.14,13.91,6.41,17.66,4.27,3.75,10.37,5.63,18.3,5.63,3.54,0,6.64-.39,9.32-1.16v-10.61c-2.42.35-4.62.52-6.6.52-5.09,0-8.8-1.06-11.13-3.17Z"/>
            <path class="cls-1" d="M328.58,368.69c-3.84-1.94-8.6-2.91-14.3-2.91-5.17,0-9.75.97-13.71,2.91-3.97,1.94-7.05,4.57-9.25,7.89-2.2,3.32-3.43,7.01-3.69,11.06h13.07c.26-3.71,1.59-6.64,4.01-8.8,2.41-2.16,5.86-3.23,10.35-3.23,3.8,0,6.77.89,8.93,2.65,2.16,1.77,3.23,4.16,3.23,7.18,0,1.81-.5,3.19-1.49,4.14-.99.95-2.69,1.6-5.11,1.94l-12.29,1.81c-6.73,1.04-12.14,3.11-16.23,6.21-4.1,3.1-6.15,7.68-6.15,13.71,0,3.88.97,7.29,2.91,10.22,1.94,2.93,4.57,5.17,7.89,6.73,3.32,1.55,6.96,2.33,10.93,2.33,5,0,9.23-.93,12.68-2.78s6.04-4.46,7.76-7.83c-.09.6-.15,1.19-.19,1.75-.04.56-.06,1.14-.06,1.75v5.05h12.03v-39.72c0-5.26-.93-9.77-2.78-13.52-1.86-3.75-4.7-6.6-8.54-8.54ZM327.49,406.53c0,3.19-.76,6.02-2.27,8.47-1.51,2.46-3.56,4.36-6.15,5.69-2.59,1.34-5.48,2.01-8.67,2.01s-5.97-.86-8.09-2.59c-2.11-1.72-3.17-4.1-3.17-7.12s1.14-5.35,3.43-6.99c2.28-1.64,5.5-2.85,9.64-3.62l7.89-1.42c2.07-.43,3.69-.86,4.85-1.29,1.16-.43,2.01-.91,2.52-1.42v8.28Z"/>
            <polygon class="cls-1" points="379.36 339.9 372.89 339.9 366.56 339.9 354.13 339.9 354.13 350.38 366.56 350.38 366.56 419.98 351.55 419.98 351.55 430.46 366.56 430.46 379.36 430.46 392.17 430.46 392.17 419.98 379.36 419.98 379.36 339.9"/>
            <path class="cls-1" d="M508.74,370.95v2.59c.08.52.13,1.01.13,1.49s.04.97.13,1.49c-1.73-3.02-4.29-5.56-7.7-7.63-3.41-2.07-7.48-3.1-12.23-3.1-5.52,0-10.48,1.38-14.88,4.14-4.4,2.76-7.85,6.66-10.35,11.71-2.5,5.05-3.75,10.93-3.75,17.66s1.23,13,3.69,18.05c2.46,5.05,5.86,8.84,10.22,11.38,4.35,2.54,9.33,3.82,14.94,3.82,4.74,0,8.84-1.04,12.29-3.11,3.45-2.07,6.04-4.61,7.76-7.63-.08.86-.15,1.75-.19,2.65-.04.91-.06,1.83-.06,2.78v3.23h12.94v-90.56h-12.94v31.05ZM507.25,411.32c-1.6,3.54-3.75,6.27-6.47,8.21-2.72,1.94-5.8,2.91-9.25,2.91s-6.69-.97-9.44-2.91c-2.76-1.94-4.9-4.66-6.41-8.15s-2.26-7.57-2.26-12.23.75-8.6,2.26-12.1,3.64-6.21,6.41-8.15c2.76-1.94,5.91-2.91,9.44-2.91,5.35,0,9.7,2.09,13.07,6.27,3.36,4.18,5.05,9.81,5.05,16.88,0,4.57-.8,8.63-2.39,12.16Z"/>
            <rect class="cls-1" x="543.67" y="412.87" width="17.47" height="17.6"/>
            <path class="cls-1" d="M624.2,368.69c-3.84-1.94-8.61-2.91-14.3-2.91-5.17,0-9.75.97-13.71,2.91-3.97,1.94-7.05,4.57-9.25,7.89-2.2,3.32-3.43,7.01-3.69,11.06h13.07c.26-3.71,1.6-6.64,4.01-8.8,2.41-2.16,5.87-3.23,10.35-3.23,3.79,0,6.77.89,8.93,2.65,2.16,1.77,3.24,4.16,3.24,7.18,0,1.81-.5,3.19-1.49,4.14-.99.95-2.7,1.6-5.11,1.94l-12.29,1.81c-6.73,1.04-12.14,3.11-16.24,6.21-4.1,3.1-6.15,7.68-6.15,13.71,0,3.88.97,7.29,2.91,10.22,1.94,2.93,4.57,5.17,7.89,6.73,3.32,1.55,6.96,2.33,10.93,2.33,5,0,9.23-.93,12.68-2.78,3.45-1.85,6.04-4.46,7.76-7.83-.09.6-.15,1.19-.19,1.75-.04.56-.06,1.14-.06,1.75v5.05h12.03v-39.72c0-5.26-.93-9.77-2.78-13.52-1.86-3.75-4.7-6.6-8.54-8.54ZM623.1,406.53c0,3.19-.75,6.02-2.26,8.47-1.51,2.46-3.56,4.36-6.15,5.69-2.59,1.34-5.48,2.01-8.67,2.01s-5.97-.86-8.09-2.59c-2.12-1.72-3.17-4.1-3.17-7.12s1.14-5.35,3.43-6.99c2.28-1.64,5.5-2.85,9.64-3.62l7.89-1.42c2.07-.43,3.69-.86,4.85-1.29,1.16-.43,2.01-.91,2.52-1.42v8.28Z"/>
            <rect class="cls-1" x="660.23" y="341.97" width="15.01" height="15.14"/>
            <polygon class="cls-1" points="674.85 419.98 674.85 367.85 669.81 367.85 661.91 367.85 650.01 367.85 650.01 378.33 661.91 378.33 661.91 419.98 647.3 419.98 647.3 430.46 661.91 430.46 674.85 430.46 687.4 430.46 687.4 419.98 674.85 419.98"/>
          </g>
          <path class="cls-1" d="M435.23,399.91h-7.79l-1-1.23,31.06-30.83h-16.43l-20.05,20.7c-1.73,1.64-3.32,3.36-4.79,5.17v-53.82h-12.94v90.56h12.94v-21.61l5.72-5.69,21.44,27.29h17.08l-25.25-30.56Z"/>
        </g>
        <path class="cls-2" d="M175.64,340.51l-40.01,40.01c-1.3,1.3-3.53.38-3.53-1.46v-37.09c0-1.84-2.23-2.76-3.53-1.46l-42.93,42.93c-.39.39-.61.91-.61,1.46v44.14c0,1.14.93,2.07,2.07,2.07h44.14c.55,0,1.07-.22,1.46-.61l45.85-45.86c.39-.39.6-.91.61-1.46v-41.22c0-1.84-2.22-2.76-3.52-1.46Z"/>
      </g>
    </g>
  </g>
</svg>
